<mxfile host="Electron" modified="2023-12-10T10:22:16.120Z" agent="Mozilla/5.0 (Windows NT 10.0; Win64; x64) AppleWebKit/537.36 (KHTML, like Gecko) draw.io/22.1.2 Chrome/114.0.5735.289 Electron/25.9.4 Safari/537.36" version="22.1.2" etag="Y3-dO5w3lDx3VNhzHSLp" type="device">
  <diagram id="b5bGseSFAoE1HApynXPR" name="ページ1">
    <mxGraphModel dx="1668" dy="986" grid="1" gridSize="10" guides="1" tooltips="1" connect="1" arrows="1" fold="1" page="1" pageScale="1" pageWidth="827" pageHeight="1169" math="0" shadow="0">
      <root>
        <mxCell id="0" />
        <mxCell id="1" parent="0" />
        <mxCell id="16" value="" style="rounded=0;whiteSpace=wrap;html=1;fillColor=none;" parent="1" vertex="1">
          <mxGeometry x="10" y="265" width="720" height="225" as="geometry" />
        </mxCell>
        <mxCell id="a7okYAo6o25zBlAkYEiv-2" value="" style="rounded=0;whiteSpace=wrap;html=1;fillColor=none;" parent="1" vertex="1">
          <mxGeometry x="197" y="398.75" width="206" height="67.5" as="geometry" />
        </mxCell>
        <mxCell id="EfboS2IAKf8KYsGbZnDD-2" value="" style="rounded=0;whiteSpace=wrap;html=1;fillColor=none;" parent="1" vertex="1">
          <mxGeometry x="470" y="600" width="320" height="260" as="geometry" />
        </mxCell>
        <mxCell id="EfboS2IAKf8KYsGbZnDD-3" value="Chrome上のフロントエンド" style="text;html=1;strokeColor=none;fillColor=none;align=left;verticalAlign=middle;whiteSpace=wrap;rounded=0;" parent="1" vertex="1">
          <mxGeometry x="482.5" y="610" width="167.5" height="20" as="geometry" />
        </mxCell>
        <mxCell id="EfboS2IAKf8KYsGbZnDD-8" value="&lt;span style=&quot;color: rgb(0 , 0 , 0) ; font-family: &amp;quot;helvetica&amp;quot; ; font-size: 12px ; font-style: normal ; font-weight: 400 ; letter-spacing: normal ; text-align: center ; text-indent: 0px ; text-transform: none ; word-spacing: 0px ; background-color: rgb(248 , 249 , 250) ; display: inline ; float: none&quot;&gt;xAIML SUNABA&lt;/span&gt;" style="rounded=0;whiteSpace=wrap;html=1;fillColor=none;dashed=1;" parent="1" vertex="1">
          <mxGeometry x="413" y="160" width="104" height="70" as="geometry" />
        </mxCell>
        <mxCell id="EfboS2IAKf8KYsGbZnDD-10" value="" style="endArrow=classic;html=1;exitX=1;exitY=0.5;exitDx=0;exitDy=0;" parent="1" target="EfboS2IAKf8KYsGbZnDD-12" edge="1" source="EfboS2IAKf8KYsGbZnDD-17">
          <mxGeometry width="50" height="50" relative="1" as="geometry">
            <mxPoint x="450" y="690" as="sourcePoint" />
            <mxPoint x="146" y="620" as="targetPoint" />
            <Array as="points" />
          </mxGeometry>
        </mxCell>
        <mxCell id="EfboS2IAKf8KYsGbZnDD-12" value="音声認識（Chrome 音声認識）" style="rounded=0;whiteSpace=wrap;html=1;fillColor=none;" parent="1" vertex="1">
          <mxGeometry x="520" y="650" width="110" height="70" as="geometry" />
        </mxCell>
        <mxCell id="EfboS2IAKf8KYsGbZnDD-14" value="音声合成（Chrome 音声合成・Amazon Polly）" style="rounded=0;whiteSpace=wrap;html=1;fillColor=none;" parent="1" vertex="1">
          <mxGeometry x="520" y="770" width="100" height="80" as="geometry" />
        </mxCell>
        <mxCell id="EfboS2IAKf8KYsGbZnDD-15" value="顔向き推定&lt;br&gt;(mediapipe)" style="rounded=0;whiteSpace=wrap;html=1;fillColor=none;" parent="1" vertex="1">
          <mxGeometry x="210" y="417.5" width="74" height="40" as="geometry" />
        </mxCell>
        <mxCell id="EfboS2IAKf8KYsGbZnDD-17" value="マイク入力" style="text;html=1;strokeColor=none;fillColor=none;align=center;verticalAlign=middle;whiteSpace=wrap;rounded=0;" parent="1" vertex="1">
          <mxGeometry x="391" y="675" width="64" height="20" as="geometry" />
        </mxCell>
        <mxCell id="EfboS2IAKf8KYsGbZnDD-20" value="スピーカー出力" style="text;html=1;strokeColor=none;fillColor=none;align=center;verticalAlign=middle;whiteSpace=wrap;rounded=0;" parent="1" vertex="1">
          <mxGeometry x="392" y="797.5" width="54" height="25" as="geometry" />
        </mxCell>
        <mxCell id="EfboS2IAKf8KYsGbZnDD-28" value="&lt;font style=&quot;font-size: 12px&quot;&gt;&lt;span style=&quot;color: rgb(51 , 51 , 51) ; font-family: &amp;#34;open sans&amp;#34; , &amp;#34;clear sans&amp;#34; , &amp;#34;helvetica neue&amp;#34; , &amp;#34;helvetica&amp;#34; , &amp;#34;arial&amp;#34; , &amp;#34;segoe ui emoji&amp;#34; , sans-serif ; font-style: normal ; font-weight: 400 ; letter-spacing: normal ; text-indent: 0px ; text-transform: none ; word-spacing: 0px ; background-color: rgb(255 , 255 , 255) ; display: inline ; float: none&quot;&gt;PC （Windows10/11およびMac&lt;/span&gt;）&lt;/font&gt;" style="text;html=1;strokeColor=none;fillColor=none;align=left;verticalAlign=middle;whiteSpace=wrap;rounded=0;" parent="1" vertex="1">
          <mxGeometry x="51" y="283.75" width="113" height="40" as="geometry" />
        </mxCell>
        <mxCell id="EfboS2IAKf8KYsGbZnDD-37" value="ユーザ状態&lt;br&gt;記号化" style="rounded=0;whiteSpace=wrap;html=1;fillColor=none;" parent="1" vertex="1">
          <mxGeometry x="310" y="422.5" width="70" height="30" as="geometry" />
        </mxCell>
        <mxCell id="EfboS2IAKf8KYsGbZnDD-45" value="" style="endArrow=classic;html=1;entryX=0.5;entryY=1;entryDx=0;entryDy=0;edgeStyle=orthogonalEdgeStyle;rounded=0;startArrow=oval;startFill=0;strokeColor=#0000FF;" parent="1" source="EfboS2IAKf8KYsGbZnDD-2" target="a7okYAo6o25zBlAkYEiv-4" edge="1">
          <mxGeometry width="50" height="50" relative="1" as="geometry">
            <mxPoint x="480" y="580" as="sourcePoint" />
            <mxPoint x="430" y="580" as="targetPoint" />
            <Array as="points">
              <mxPoint x="615" y="550" />
              <mxPoint x="505" y="550" />
            </Array>
          </mxGeometry>
        </mxCell>
        <mxCell id="a7okYAo6o25zBlAkYEiv-3" value="ユーザ状態推定" style="text;html=1;strokeColor=none;fillColor=none;align=center;verticalAlign=middle;whiteSpace=wrap;rounded=0;" parent="1" vertex="1">
          <mxGeometry x="239" y="398.75" width="104" height="20" as="geometry" />
        </mxCell>
        <mxCell id="a7okYAo6o25zBlAkYEiv-4" value="メインモジュール" style="rounded=0;whiteSpace=wrap;html=1;fillColor=none;" parent="1" vertex="1">
          <mxGeometry x="440" y="390" width="130" height="50" as="geometry" />
        </mxCell>
        <mxCell id="a7okYAo6o25zBlAkYEiv-5" value="" style="endArrow=classic;html=1;exitX=1;exitY=0.5;exitDx=0;exitDy=0;entryX=0;entryY=0.5;entryDx=0;entryDy=0;strokeColor=#FF0000;" parent="1" source="EfboS2IAKf8KYsGbZnDD-37" target="a7okYAo6o25zBlAkYEiv-4" edge="1">
          <mxGeometry width="50" height="50" relative="1" as="geometry">
            <mxPoint x="326" y="620" as="sourcePoint" />
            <mxPoint x="384" y="620" as="targetPoint" />
          </mxGeometry>
        </mxCell>
        <mxCell id="GXgiw-7ykm0MC5TVwZrI-12" value="チャット画面（ユーザ発話の音声認識結果、システム発話＆システムから送付された画像の表示）" style="rounded=0;whiteSpace=wrap;html=1;fillColor=none;" parent="1" vertex="1">
          <mxGeometry x="650" y="645" width="120" height="105" as="geometry" />
        </mxCell>
        <mxCell id="GXgiw-7ykm0MC5TVwZrI-17" value="" style="endArrow=classic;html=1;strokeColor=#FF0000;" parent="1" edge="1">
          <mxGeometry width="50" height="50" relative="1" as="geometry">
            <mxPoint x="440" y="892" as="sourcePoint" />
            <mxPoint x="480" y="892" as="targetPoint" />
          </mxGeometry>
        </mxCell>
        <mxCell id="GXgiw-7ykm0MC5TVwZrI-19" value="MQTT" style="text;html=1;strokeColor=none;fillColor=none;align=center;verticalAlign=middle;whiteSpace=wrap;rounded=0;dashed=1;" parent="1" vertex="1">
          <mxGeometry x="493" y="882" width="40" height="20" as="geometry" />
        </mxCell>
        <mxCell id="GXgiw-7ykm0MC5TVwZrI-22" value="" style="endArrow=classic;html=1;strokeColor=#0000FF;startArrow=oval;startFill=0;" parent="1" edge="1">
          <mxGeometry width="50" height="50" relative="1" as="geometry">
            <mxPoint x="440" y="921.5" as="sourcePoint" />
            <mxPoint x="480" y="921.5" as="targetPoint" />
          </mxGeometry>
        </mxCell>
        <mxCell id="GXgiw-7ykm0MC5TVwZrI-23" value="REST" style="text;html=1;strokeColor=none;fillColor=none;align=center;verticalAlign=middle;whiteSpace=wrap;rounded=0;dashed=1;" parent="1" vertex="1">
          <mxGeometry x="491.5" y="912" width="40" height="20" as="geometry" />
        </mxCell>
        <mxCell id="GXgiw-7ykm0MC5TVwZrI-25" value="画像&lt;br&gt;（フォルダに格納）" style="shape=cylinder3;whiteSpace=wrap;html=1;boundedLbl=1;backgroundOutline=1;size=15;" parent="1" vertex="1">
          <mxGeometry x="468.5" y="300" width="111.5" height="70" as="geometry" />
        </mxCell>
        <mxCell id="GXgiw-7ykm0MC5TVwZrI-32" value="" style="endArrow=classic;html=1;strokeColor=#000000;exitX=0.5;exitY=1;exitDx=0;exitDy=0;exitPerimeter=0;edgeStyle=orthogonalEdgeStyle;rounded=0;entryX=0.5;entryY=0;entryDx=0;entryDy=0;" parent="1" source="GXgiw-7ykm0MC5TVwZrI-25" target="a7okYAo6o25zBlAkYEiv-4" edge="1">
          <mxGeometry width="50" height="50" relative="1" as="geometry">
            <mxPoint x="600" y="690" as="sourcePoint" />
            <mxPoint x="480" y="410" as="targetPoint" />
          </mxGeometry>
        </mxCell>
        <mxCell id="L56NbOX1jn-6j7juBnXU-4" value="" style="rounded=0;whiteSpace=wrap;html=1;fillColor=none;" parent="1" vertex="1">
          <mxGeometry x="195" y="300.01" width="210" height="66.25" as="geometry" />
        </mxCell>
        <mxCell id="L56NbOX1jn-6j7juBnXU-5" value="face++呼び出し&lt;br&gt;＋ユーザ状態記号化" style="text;html=1;strokeColor=none;fillColor=none;align=center;verticalAlign=middle;whiteSpace=wrap;rounded=0;" parent="1" vertex="1">
          <mxGeometry x="238" y="325" width="120" height="20" as="geometry" />
        </mxCell>
        <mxCell id="L56NbOX1jn-6j7juBnXU-8" value="" style="endArrow=classic;html=1;exitX=1;exitY=0.5;exitDx=0;exitDy=0;entryX=0;entryY=0.25;entryDx=0;entryDy=0;strokeColor=#FF0000;" parent="1" source="L56NbOX1jn-6j7juBnXU-4" target="a7okYAo6o25zBlAkYEiv-4" edge="1">
          <mxGeometry width="50" height="50" relative="1" as="geometry">
            <mxPoint x="160" y="240" as="sourcePoint" />
            <mxPoint x="220" y="232.5" as="targetPoint" />
          </mxGeometry>
        </mxCell>
        <mxCell id="L56NbOX1jn-6j7juBnXU-12" value="" style="endArrow=classic;html=1;rounded=0;exitX=0;exitY=0.5;exitDx=0;exitDy=0;" parent="1" source="EfboS2IAKf8KYsGbZnDD-14" edge="1">
          <mxGeometry width="50" height="50" relative="1" as="geometry">
            <mxPoint x="410" y="700" as="sourcePoint" />
            <mxPoint x="450" y="810" as="targetPoint" />
          </mxGeometry>
        </mxCell>
        <mxCell id="L56NbOX1jn-6j7juBnXU-18" value="" style="endArrow=classic;html=1;exitX=0.148;exitY=0.649;exitDx=0;exitDy=0;entryX=0;entryY=0.25;entryDx=0;entryDy=0;exitPerimeter=0;" parent="1" target="EfboS2IAKf8KYsGbZnDD-15" edge="1">
          <mxGeometry width="50" height="50" relative="1" as="geometry">
            <mxPoint x="103.51999999999998" y="424.07124999999996" as="sourcePoint" />
            <mxPoint x="211" y="614.375" as="targetPoint" />
            <Array as="points">
              <mxPoint x="130" y="428" />
            </Array>
          </mxGeometry>
        </mxCell>
        <mxCell id="L56NbOX1jn-6j7juBnXU-19" value="" style="endArrow=classic;html=1;entryX=0;entryY=0.5;entryDx=0;entryDy=0;strokeColor=#FF0000;" parent="1" target="L56NbOX1jn-6j7juBnXU-4" edge="1">
          <mxGeometry width="50" height="50" relative="1" as="geometry">
            <mxPoint x="100" y="420" as="sourcePoint" />
            <mxPoint x="190.048" y="637.46" as="targetPoint" />
          </mxGeometry>
        </mxCell>
        <mxCell id="L56NbOX1jn-6j7juBnXU-21" value="USBカメラの&lt;br&gt;入力" style="rounded=0;whiteSpace=wrap;html=1;" parent="1" vertex="1">
          <mxGeometry x="20" y="330" width="100" height="60" as="geometry" />
        </mxCell>
        <mxCell id="L56NbOX1jn-6j7juBnXU-22" value="" style="endArrow=classic;html=1;strokeColor=#FF0000;exitX=0.5;exitY=1;exitDx=0;exitDy=0;" parent="1" source="L56NbOX1jn-6j7juBnXU-21" edge="1">
          <mxGeometry width="50" height="50" relative="1" as="geometry">
            <mxPoint x="120" y="520" as="sourcePoint" />
            <mxPoint x="100" y="420" as="targetPoint" />
          </mxGeometry>
        </mxCell>
        <mxCell id="L56NbOX1jn-6j7juBnXU-23" value="" style="rounded=0;whiteSpace=wrap;html=1;fillColor=none;" parent="1" vertex="1">
          <mxGeometry x="140" y="595" width="240" height="265" as="geometry" />
        </mxCell>
        <mxCell id="L56NbOX1jn-6j7juBnXU-25" value="" style="endArrow=classic;html=1;entryX=0;entryY=0.5;entryDx=0;entryDy=0;exitX=1;exitY=0.5;exitDx=0;exitDy=0;" parent="1" target="L56NbOX1jn-6j7juBnXU-26" edge="1" source="L56NbOX1jn-6j7juBnXU-28">
          <mxGeometry width="50" height="50" relative="1" as="geometry">
            <mxPoint x="47" y="705" as="sourcePoint" />
            <mxPoint x="-207" y="615" as="targetPoint" />
            <Array as="points" />
          </mxGeometry>
        </mxCell>
        <mxCell id="L56NbOX1jn-6j7juBnXU-26" value="Android 音声認識" style="rounded=0;whiteSpace=wrap;html=1;fillColor=none;" parent="1" vertex="1">
          <mxGeometry x="160" y="685" width="78" height="45" as="geometry" />
        </mxCell>
        <mxCell id="L56NbOX1jn-6j7juBnXU-27" value="Android音声合成" style="rounded=0;whiteSpace=wrap;html=1;fillColor=none;" parent="1" vertex="1">
          <mxGeometry x="160" y="785" width="80" height="45" as="geometry" />
        </mxCell>
        <mxCell id="L56NbOX1jn-6j7juBnXU-28" value="マイク入力" style="text;html=1;strokeColor=none;fillColor=none;align=center;verticalAlign=middle;whiteSpace=wrap;rounded=0;" parent="1" vertex="1">
          <mxGeometry x="30" y="697.5" width="64" height="20" as="geometry" />
        </mxCell>
        <mxCell id="L56NbOX1jn-6j7juBnXU-29" value="スピーカー出力" style="text;html=1;strokeColor=none;fillColor=none;align=center;verticalAlign=middle;whiteSpace=wrap;rounded=0;" parent="1" vertex="1">
          <mxGeometry x="20" y="797.5" width="54" height="25" as="geometry" />
        </mxCell>
        <mxCell id="L56NbOX1jn-6j7juBnXU-31" value="" style="endArrow=classic;html=1;rounded=0;exitX=0;exitY=0.5;exitDx=0;exitDy=0;" parent="1" source="L56NbOX1jn-6j7juBnXU-27" edge="1">
          <mxGeometry width="50" height="50" relative="1" as="geometry">
            <mxPoint x="57" y="695" as="sourcePoint" />
            <mxPoint x="80" y="808" as="targetPoint" />
            <Array as="points" />
          </mxGeometry>
        </mxCell>
        <mxCell id="L56NbOX1jn-6j7juBnXU-35" value="カメラ入力" style="rounded=0;whiteSpace=wrap;html=1;" parent="1" vertex="1">
          <mxGeometry x="160" y="610" width="79" height="50" as="geometry" />
        </mxCell>
        <mxCell id="L56NbOX1jn-6j7juBnXU-36" value="" style="endArrow=classic;html=1;rounded=0;fillColor=#d80073;strokeColor=#A50040;exitX=0.5;exitY=0;exitDx=0;exitDy=0;" parent="1" edge="1" source="L56NbOX1jn-6j7juBnXU-35">
          <mxGeometry width="50" height="50" relative="1" as="geometry">
            <mxPoint x="139" y="607.5" as="sourcePoint" />
            <mxPoint x="100" y="420" as="targetPoint" />
          </mxGeometry>
        </mxCell>
        <mxCell id="12" value="補助出力サーバ" style="rounded=0;whiteSpace=wrap;html=1;fillColor=none;dashed=1;" parent="1" vertex="1">
          <mxGeometry x="624" y="500" width="104" height="40" as="geometry" />
        </mxCell>
        <mxCell id="18" value="対話サーバ&lt;br&gt;との接続&lt;br&gt;（接続先切替）" style="rounded=0;whiteSpace=wrap;html=1;fillColor=none;" parent="1" vertex="1">
          <mxGeometry x="620" y="390" width="90" height="60" as="geometry" />
        </mxCell>
        <mxCell id="22" value="&lt;span style=&quot;color: rgb(0 , 0 , 0) ; font-family: &amp;#34;helvetica&amp;#34; ; font-size: 12px ; font-style: normal ; font-weight: 400 ; letter-spacing: normal ; text-align: center ; text-indent: 0px ; text-transform: none ; word-spacing: 0px ; background-color: rgb(248 , 249 , 250) ; display: inline ; float: none&quot;&gt;その他の&lt;br&gt;対話システム&lt;/span&gt;" style="rounded=0;whiteSpace=wrap;html=1;fillColor=none;dashed=1;" parent="1" vertex="1">
          <mxGeometry x="657" y="160" width="104" height="70" as="geometry" />
        </mxCell>
        <mxCell id="L7vic24f_P652sHzbROX-25" value="チャット画面（ユーザ発話の音声認識結果、システム発話＆システムから送付された画像の表示）" style="rounded=0;whiteSpace=wrap;html=1;fillColor=none;" vertex="1" parent="1">
          <mxGeometry x="250" y="725" width="120" height="105" as="geometry" />
        </mxCell>
        <mxCell id="L7vic24f_P652sHzbROX-28" value="" style="endArrow=classic;html=1;edgeStyle=orthogonalEdgeStyle;rounded=0;startArrow=oval;startFill=0;strokeColor=#0000FF;entryX=0.5;entryY=1;entryDx=0;entryDy=0;exitX=0.537;exitY=-0.005;exitDx=0;exitDy=0;exitPerimeter=0;" edge="1" parent="1" source="L56NbOX1jn-6j7juBnXU-23" target="a7okYAo6o25zBlAkYEiv-4">
          <mxGeometry width="50" height="50" relative="1" as="geometry">
            <mxPoint x="625" y="610" as="sourcePoint" />
            <mxPoint x="515" y="450" as="targetPoint" />
            <Array as="points">
              <mxPoint x="269" y="550" />
              <mxPoint x="505" y="550" />
            </Array>
          </mxGeometry>
        </mxCell>
        <mxCell id="L7vic24f_P652sHzbROX-29" value="Android上のフロントエンド" style="text;html=1;strokeColor=none;fillColor=none;align=left;verticalAlign=middle;whiteSpace=wrap;rounded=0;" vertex="1" parent="1">
          <mxGeometry x="276" y="605" width="100" height="40" as="geometry" />
        </mxCell>
        <mxCell id="L7vic24f_P652sHzbROX-30" value="&lt;span style=&quot;color: rgb(0 , 0 , 0) ; font-family: &amp;quot;helvetica&amp;quot; ; font-size: 12px ; font-style: normal ; font-weight: 400 ; letter-spacing: normal ; text-align: center ; text-indent: 0px ; text-transform: none ; word-spacing: 0px ; background-color: rgb(248 , 249 , 250) ; display: inline ; float: none&quot;&gt;DialBB&lt;/span&gt;" style="rounded=0;whiteSpace=wrap;html=1;fillColor=none;dashed=1;" vertex="1" parent="1">
          <mxGeometry x="533" y="160" width="104" height="70" as="geometry" />
        </mxCell>
        <mxCell id="L7vic24f_P652sHzbROX-31" value="" style="endArrow=classic;html=1;edgeStyle=orthogonalEdgeStyle;rounded=0;startArrow=oval;startFill=0;strokeColor=#0000FF;exitX=0.5;exitY=0;exitDx=0;exitDy=0;" edge="1" parent="1" source="18">
          <mxGeometry width="50" height="50" relative="1" as="geometry">
            <mxPoint x="625" y="610" as="sourcePoint" />
            <mxPoint x="460" y="230" as="targetPoint" />
            <Array as="points">
              <mxPoint x="665" y="290" />
              <mxPoint x="460" y="290" />
            </Array>
          </mxGeometry>
        </mxCell>
        <mxCell id="L7vic24f_P652sHzbROX-33" value="" style="endArrow=classic;html=1;edgeStyle=orthogonalEdgeStyle;rounded=0;startArrow=oval;startFill=0;strokeColor=#0000FF;entryX=0.5;entryY=1;entryDx=0;entryDy=0;" edge="1" parent="1" target="L7vic24f_P652sHzbROX-30">
          <mxGeometry width="50" height="50" relative="1" as="geometry">
            <mxPoint x="665" y="390" as="sourcePoint" />
            <mxPoint x="465" y="235" as="targetPoint" />
            <Array as="points">
              <mxPoint x="665" y="290" />
              <mxPoint x="585" y="290" />
            </Array>
          </mxGeometry>
        </mxCell>
        <mxCell id="L7vic24f_P652sHzbROX-34" value="" style="endArrow=classic;html=1;edgeStyle=orthogonalEdgeStyle;rounded=0;startArrow=oval;startFill=0;strokeColor=#0000FF;" edge="1" parent="1">
          <mxGeometry width="50" height="50" relative="1" as="geometry">
            <mxPoint x="665" y="390" as="sourcePoint" />
            <mxPoint x="710" y="230" as="targetPoint" />
            <Array as="points">
              <mxPoint x="665" y="290" />
              <mxPoint x="710" y="290" />
              <mxPoint x="710" y="231" />
            </Array>
          </mxGeometry>
        </mxCell>
        <mxCell id="L7vic24f_P652sHzbROX-35" value="" style="endArrow=classic;html=1;edgeStyle=orthogonalEdgeStyle;rounded=0;startArrow=oval;startFill=0;strokeColor=#0000FF;entryX=0;entryY=0.5;entryDx=0;entryDy=0;" edge="1" parent="1" target="18">
          <mxGeometry width="50" height="50" relative="1" as="geometry">
            <mxPoint x="570" y="420" as="sourcePoint" />
            <mxPoint x="720" y="240" as="targetPoint" />
            <Array as="points">
              <mxPoint x="620" y="420" />
            </Array>
          </mxGeometry>
        </mxCell>
        <mxCell id="L7vic24f_P652sHzbROX-37" value="" style="endArrow=classic;html=1;edgeStyle=orthogonalEdgeStyle;rounded=0;startArrow=oval;startFill=0;strokeColor=#0000FF;entryX=0;entryY=0.5;entryDx=0;entryDy=0;exitX=0.75;exitY=1;exitDx=0;exitDy=0;" edge="1" parent="1" source="a7okYAo6o25zBlAkYEiv-4" target="12">
          <mxGeometry width="50" height="50" relative="1" as="geometry">
            <mxPoint x="580" y="430" as="sourcePoint" />
            <mxPoint x="630" y="430" as="targetPoint" />
            <Array as="points">
              <mxPoint x="538" y="520" />
            </Array>
          </mxGeometry>
        </mxCell>
        <mxCell id="L7vic24f_P652sHzbROX-38" value="" style="endArrow=classic;html=1;exitX=1;exitY=0.5;exitDx=0;exitDy=0;entryX=0;entryY=0.5;entryDx=0;entryDy=0;strokeColor=#FF0000;" edge="1" parent="1" source="EfboS2IAKf8KYsGbZnDD-15" target="EfboS2IAKf8KYsGbZnDD-37">
          <mxGeometry width="50" height="50" relative="1" as="geometry">
            <mxPoint x="390" y="445" as="sourcePoint" />
            <mxPoint x="450" y="425" as="targetPoint" />
          </mxGeometry>
        </mxCell>
      </root>
    </mxGraphModel>
  </diagram>
</mxfile>
